<svg id="Layer_1" data-name="Layer 1" xmlns="http://www.w3.org/2000/svg" viewBox="0 0 360.72 99.71"><defs><style>.cls-1{fill:#ff1d25;}.cls-2{fill:#f4ca43;}.cls-3{fill:#f2bd13;}.cls-4{fill:#f4b373;}.cls-5{fill:#848484;}.cls-6{fill:#9b9a8f;}.cls-7{fill:#feffb2;}</style></defs><title>Untitled-2</title><rect class="cls-1" width="52.77" height="99.67" rx="20" ry="20"/><rect class="cls-2" x="52.77" width="258.09" height="99.61"/><rect class="cls-3" x="52.77" y="49.8" width="258.09" height="49.81"/><path class="cls-3" d="M310.86,0"/><polygon class="cls-4" points="360.72 49.91 346.52 64.11 310.91 99.71 310.86 0.04 346.52 35.7 360.72 49.91"/><polygon class="cls-5" points="360.59 49.91 346.38 64.11 346.38 35.7 360.59 49.91"/><rect class="cls-6" x="34.76" width="18" height="99.66"/><path class="cls-7" d="M62.21,83.84v7.22h-2.6V71.77h5.69a10.68,10.68,0,0,1,3.18.42,6.12,6.12,0,0,1,2.24,1.21,4.86,4.86,0,0,1,1.33,1.88,6.64,6.64,0,0,1,.44,2.46A6.27,6.27,0,0,1,72,80.21a5.29,5.29,0,0,1-1.38,1.93,6.42,6.42,0,0,1-2.25,1.26,9.68,9.68,0,0,1-3.09.45h-3.1Zm0-2.07h3.1a6,6,0,0,0,2-.3,4.12,4.12,0,0,0,1.44-.83,3.41,3.41,0,0,0,.88-1.27,4.35,4.35,0,0,0,.3-1.63,3.7,3.7,0,0,0-1.14-2.88,5,5,0,0,0-3.45-1h-3.1v7.94Z"/><path class="cls-7" d="M87.67,71.77v2.13H78.4V80.3h7.51v2H78.4v6.58h9.29v2.13H75.79V71.77H87.67Z"/><path class="cls-7" d="M93,71.79a0.76,0.76,0,0,1,.22.07,0.84,0.84,0,0,1,.19.13,2.11,2.11,0,0,1,.2.22l11.16,14.53c0-.23,0-0.46,0-0.68s0-.43,0-0.63V71.77H107V91.06h-1.31a1.12,1.12,0,0,1-.52-0.11,1.3,1.3,0,0,1-.41-0.36L93.57,76.06q0,0.34,0,.66t0,0.59V91.06H91.34V71.77h1.35Z"/><path class="cls-7" d="M125.44,87.08a0.5,0.5,0,0,1,.38.17l1,1.12A8.25,8.25,0,0,1,124,90.51a9.84,9.84,0,0,1-4.09.77,9.54,9.54,0,0,1-3.77-.72,8.28,8.28,0,0,1-2.89-2,9.12,9.12,0,0,1-1.86-3.12,11.64,11.64,0,0,1-.66-4,11.23,11.23,0,0,1,.69-4,9.15,9.15,0,0,1,1.93-3.12,8.64,8.64,0,0,1,3-2,9.93,9.93,0,0,1,3.84-.72,9.35,9.35,0,0,1,3.64.66A9.16,9.16,0,0,1,126.56,74l-0.86,1.2a0.7,0.7,0,0,1-.21.22,0.6,0.6,0,0,1-.34.09,1.07,1.07,0,0,1-.59-0.26,9.07,9.07,0,0,0-.92-0.59,6.82,6.82,0,0,0-3.5-.85,7,7,0,0,0-2.73.52,6,6,0,0,0-2.13,1.5,6.91,6.91,0,0,0-1.39,2.4,9.55,9.55,0,0,0-.5,3.19,9.3,9.3,0,0,0,.52,3.22A7.09,7.09,0,0,0,115.31,87a6,6,0,0,0,2.11,1.49,6.73,6.73,0,0,0,2.63.51,10.78,10.78,0,0,0,1.56-.1,6.34,6.34,0,0,0,1.28-.32,5.38,5.38,0,0,0,1.09-.55,7.75,7.75,0,0,0,1-.79A0.69,0.69,0,0,1,125.44,87.08Z"/><path class="cls-7" d="M132.49,91.06h-2.61V71.77h2.61V91.06Z"/><path class="cls-7" d="M140,88.87h8.35v2.19H137.42V71.77H140v17.1Z"/><path class="cls-7" d="M163.85,71.55a5.27,5.27,0,0,1,1.94.34,5,5,0,0,1,1.51.91,4.33,4.33,0,0,1,1,1.31,4.08,4.08,0,0,1,.42,1.55l-1.49.3a0.54,0.54,0,0,1-.66-0.42,3.29,3.29,0,0,0-.3-0.73,2.82,2.82,0,0,0-.54-0.69,2.75,2.75,0,0,0-.79-0.51,2.69,2.69,0,0,0-1.08-.2,3.29,3.29,0,0,0-1.22.22,2.69,2.69,0,0,0-.93.6,2.6,2.6,0,0,0-.59.9,3.07,3.07,0,0,0-.2,1.12,3.72,3.72,0,0,0,.11.9,3.89,3.89,0,0,0,.34.88,5.89,5.89,0,0,0,.6.9,11.71,11.71,0,0,0,.88,1l5.55,5.64a9.75,9.75,0,0,0,.81-1.9,10.6,10.6,0,0,0,.41-2,0.69,0.69,0,0,1,.16-0.4,0.48,0.48,0,0,1,.38-0.15h1.47a10.17,10.17,0,0,1-.49,3A11.08,11.08,0,0,1,169.77,87l4,4.11h-2.33a1.77,1.77,0,0,1-.63-0.09,1.56,1.56,0,0,1-.53-0.39l-2-2a9.67,9.67,0,0,1-2.91,1.94,9,9,0,0,1-3.63.71,6.29,6.29,0,0,1-2.11-.36,5.87,5.87,0,0,1-1.85-1.06,5.26,5.26,0,0,1-1.32-1.69,5,5,0,0,1-.5-2.25,5,5,0,0,1,.32-1.78,5.84,5.84,0,0,1,.88-1.56,6.7,6.7,0,0,1,1.33-1.28,9.08,9.08,0,0,1,1.69-1,7.77,7.77,0,0,1-1.22-2,5.55,5.55,0,0,1-.38-2,4.77,4.77,0,0,1,.36-1.84,4.33,4.33,0,0,1,1-1.5,4.9,4.9,0,0,1,1.64-1A6,6,0,0,1,163.85,71.55Zm-1.6,17.77a6.4,6.4,0,0,0,2.71-.55,7.25,7.25,0,0,0,2.11-1.47l-5.69-5.75a5.85,5.85,0,0,0-2.15,1.84,4.1,4.1,0,0,0-.72,2.34,3.42,3.42,0,0,0,1.17,2.67,3.63,3.63,0,0,0,1.2.69A4.13,4.13,0,0,0,162.25,89.32Z"/><path class="cls-7" d="M196.94,87.08a0.5,0.5,0,0,1,.38.17l1,1.12a8.25,8.25,0,0,1-2.87,2.14,9.83,9.83,0,0,1-4.09.77,9.54,9.54,0,0,1-3.77-.72,8.28,8.28,0,0,1-2.89-2,9.12,9.12,0,0,1-1.86-3.12,11.64,11.64,0,0,1-.66-4,11.24,11.24,0,0,1,.69-4,9.16,9.16,0,0,1,1.93-3.12,8.64,8.64,0,0,1,3-2,9.93,9.93,0,0,1,3.84-.72,9.35,9.35,0,0,1,3.63.66A9.16,9.16,0,0,1,198.06,74l-0.86,1.2a0.71,0.71,0,0,1-.21.22,0.6,0.6,0,0,1-.34.09,1.07,1.07,0,0,1-.59-0.26,9.11,9.11,0,0,0-.92-0.59,6.82,6.82,0,0,0-3.5-.85,7,7,0,0,0-2.73.52,6,6,0,0,0-2.13,1.5,6.92,6.92,0,0,0-1.39,2.4,9.56,9.56,0,0,0-.5,3.19,9.31,9.31,0,0,0,.52,3.22A7.11,7.11,0,0,0,186.81,87a6,6,0,0,0,2.11,1.49,6.73,6.73,0,0,0,2.63.51,10.77,10.77,0,0,0,1.55-.1,6.34,6.34,0,0,0,1.28-.32,5.38,5.38,0,0,0,1.09-.55,7.71,7.71,0,0,0,1-.79A0.7,0.7,0,0,1,196.94,87.08Z"/><path class="cls-7" d="M218.83,81.42a11.13,11.13,0,0,1-.69,4,9.1,9.1,0,0,1-1.94,3.12,8.66,8.66,0,0,1-3,2,10.81,10.81,0,0,1-7.76,0,8.67,8.67,0,0,1-3-2,9.11,9.11,0,0,1-1.94-3.12,11.88,11.88,0,0,1,0-8,9.19,9.19,0,0,1,1.94-3.12,8.72,8.72,0,0,1,3-2,10.72,10.72,0,0,1,7.76,0,8.7,8.7,0,0,1,3,2,9.18,9.18,0,0,1,1.94,3.12A11.13,11.13,0,0,1,218.83,81.42Zm-2.68,0a9.79,9.79,0,0,0-.48-3.19,6.75,6.75,0,0,0-1.37-2.39,6,6,0,0,0-2.15-1.5,7.84,7.84,0,0,0-5.64,0,6,6,0,0,0-2.16,1.5A6.7,6.7,0,0,0,203,78.23a10.73,10.73,0,0,0,0,6.37A6.71,6.71,0,0,0,204.34,87a6,6,0,0,0,2.16,1.49,7.93,7.93,0,0,0,5.64,0A5.89,5.89,0,0,0,214.3,87a6.76,6.76,0,0,0,1.37-2.38A9.73,9.73,0,0,0,216.15,81.42Z"/><path class="cls-7" d="M221,89.58a1.72,1.72,0,0,1,.48-1.2,1.68,1.68,0,0,1,1.85-.36,1.71,1.71,0,0,1,.9.9,1.65,1.65,0,0,1,.13.66,1.63,1.63,0,0,1-.13.67,1.75,1.75,0,0,1-.36.53,1.64,1.64,0,0,1-.54.36,1.77,1.77,0,0,1-1.32,0,1.57,1.57,0,0,1-.53-0.36,1.71,1.71,0,0,1-.35-0.53A1.69,1.69,0,0,1,221,89.58Z"/></svg>