<svg id="Layer_1" data-name="Layer 1" xmlns="http://www.w3.org/2000/svg" viewBox="0 0 60 60"><defs><style>.cls-1{fill:#fff;}.cls-2{fill:#f48020;}</style></defs><title>Untitled-3</title><g id="_Group_" data-name="&lt;Group&gt;"><circle id="_Path_" data-name="&lt;Path&gt;" class="cls-1" cx="30" cy="30" r="26.65"/><path id="_Compound_Path_" data-name="&lt;Compound Path&gt;" class="cls-2" d="M30,0A30,30,0,1,0,60,30,30,30,0,0,0,30,0ZM19,45a4,4,0,1,1,4-4A4,4,0,0,1,19,45Zm10,0a14,14,0,0,0-4.1-9.94,13.83,13.83,0,0,0-9.87-4.11V25.2A19.78,19.78,0,0,1,34.78,45H29Zm10.16,0A24.21,24.21,0,0,0,15.07,20.75V15A30,30,0,0,1,44.94,45H39.19Z"/></g></svg>