<svg id="Layer_1" data-name="Layer 1" xmlns="http://www.w3.org/2000/svg" viewBox="0 0 60 60"><defs><style>.cls-1{fill:#fff;}.cls-2{fill:#2aa9e0;}</style></defs><title>Untitled-3</title><g id="_Group_" data-name="&lt;Group&gt;"><circle id="_Path_" data-name="&lt;Path&gt;" class="cls-1" cx="30" cy="30" r="26.65"/><path id="_Compound_Path_" data-name="&lt;Compound Path&gt;" class="cls-2" d="M30,0A30,30,0,1,0,60,30,30,30,0,0,0,30,0ZM41.93,23.88c0,0.26,0,.53,0,0.79,0,8.13-6.19,17.51-17.51,17.51A17.42,17.42,0,0,1,15,39.43a13,13,0,0,0,1.47.08,12.33,12.33,0,0,0,7.64-2.63,6.16,6.16,0,0,1-5.75-4.27,6.32,6.32,0,0,0,1.16.11,6.2,6.2,0,0,0,1.62-.22,6.16,6.16,0,0,1-4.94-6V26.39a6.15,6.15,0,0,0,2.79.77,6.16,6.16,0,0,1-1.9-8.22,17.47,17.47,0,0,0,12.69,6.43,6.16,6.16,0,0,1,10.49-5.61,12.28,12.28,0,0,0,3.91-1.49,6.18,6.18,0,0,1-2.71,3.41,12.28,12.28,0,0,0,3.53-1A12.48,12.48,0,0,1,41.93,23.88Z"/></g></svg>